<svg width="55" height="23" viewBox="0 0 55 23" fill="none" xmlns="http://www.w3.org/2000/svg">
<path d="M10.7479 4.82812C11.2532 4.82812 13.0613 4.87305 14.2405 6.59131C14.1395 6.66992 12.3426 7.68066 12.3426 9.94922C12.3426 12.5771 14.6336 13.5093 14.701 13.5317C14.6898 13.5879 14.3304 14.8008 13.4993 16.0474C12.7469 17.1255 11.9495 18.2148 10.7479 18.2148C9.5462 18.2148 9.23174 17.5186 7.86163 17.5186C6.50274 17.5186 6.01983 18.2373 4.93047 18.2373C3.82989 18.2373 3.05499 17.2266 2.19024 16.0024C1.16827 14.5312 0.337212 12.2739 0.337212 10.1289C0.337212 6.70361 2.57207 4.87305 4.77325 4.87305C5.92999 4.87305 6.90704 5.63672 7.63702 5.63672C8.33331 5.63672 9.41143 4.82812 10.7479 4.82812ZM10.1302 3.37939C9.53497 4.09814 8.52422 4.63721 7.72686 4.63721C7.63702 4.63721 7.54717 4.62598 7.49102 4.61475C7.47979 4.56982 7.45733 4.42383 7.45733 4.28906C7.45733 3.37939 7.92901 2.46973 8.42315 1.89697C9.06329 1.14453 10.1414 0.594238 11.0174 0.560547C11.0398 0.661621 11.0511 0.785156 11.0511 0.908691C11.0511 1.81836 10.6692 2.7168 10.1302 3.37939ZM19.1155 1.82959H25.6516C28.886 1.82959 31.0984 4.04199 31.0984 7.31006C31.0984 10.522 28.8074 12.7231 25.5281 12.7231H22.013V18.0352H19.1155V1.82959ZM22.013 4.25537V10.3198H24.8767C26.9431 10.3198 28.156 9.2417 28.156 7.31006C28.156 5.32227 26.9768 4.25537 24.888 4.25537H22.013ZM36.5349 16.0474C38.2195 16.0474 39.4773 14.958 39.4773 13.5317V12.5547L36.7033 12.7344C35.1423 12.8354 34.4123 13.397 34.4123 14.3965C34.4123 15.4297 35.2995 16.0474 36.5349 16.0474ZM35.7151 18.2373C33.3454 18.2373 31.6496 16.7998 31.6496 14.5537C31.6496 12.3301 33.323 11.0498 36.3103 10.8701L39.4773 10.6792V9.646C39.4773 8.44434 38.6687 7.77051 37.1638 7.77051C35.8835 7.77051 35.0075 8.21973 34.7492 9.05078H32.1213C32.3459 6.8833 34.3786 5.50195 37.2986 5.50195C40.4543 5.50195 42.2287 7.04053 42.2287 9.646V18.0352H39.5447V16.3506H39.3537C38.6687 17.541 37.321 18.2373 35.7151 18.2373ZM45.3293 22.4937C45.1608 22.4937 44.4084 22.4824 44.2287 22.4487V20.1689C44.3859 20.2026 44.8015 20.2139 44.9924 20.2139C46.1716 20.2139 46.8342 19.7646 47.1935 18.6304L47.3395 18.0913L42.9484 5.74902H46.0031L48.8781 15.3398H49.069L51.9328 5.74902H54.8752L50.4392 18.4282C49.3947 21.4829 48.0808 22.4937 45.3293 22.4937Z" fill="black"/>
</svg>
