<svg width="21" height="21" viewBox="0 0 21 21" fill="none" xmlns="http://www.w3.org/2000/svg">
<path d="M20.4579 10.2451C20.4579 9.51294 20.392 8.81236 20.2695 8.13867H10.793V11.9983L16.2507 11.9995C16.0293 13.2837 15.317 14.3784 14.2254 15.1083V17.6123H17.4741C19.3711 15.8685 20.4579 13.2907 20.4579 10.2451Z" fill="#4285F4"/>
<path d="M14.2255 15.109C13.3212 15.7149 12.1567 16.0693 10.7943 16.0693C8.16256 16.0693 5.93001 14.3079 5.13048 11.9336H1.7793V14.5161C3.43958 17.7886 6.852 20.0342 10.7943 20.0342C13.519 20.0342 15.8081 19.1441 17.4743 17.612L14.2255 15.109Z" fill="#34A853"/>
<path d="M4.81535 10.017C4.81535 9.35032 4.92721 8.70588 5.13092 8.10003V5.51758H1.77974C1.09325 6.87079 0.707031 8.39828 0.707031 10.017C0.707031 11.6357 1.09443 13.1632 1.77974 14.5164L5.13092 11.9339C4.92721 11.3281 4.81535 10.6837 4.81535 10.017Z" fill="#FABB05"/>
<path d="M10.7943 3.96491C12.2815 3.96491 13.6132 4.47368 14.6648 5.46783L17.5438 2.61052C15.7952 0.992982 13.5155 0 10.7943 0C6.85318 0 3.43958 2.24561 1.7793 5.51812L5.13048 8.10058C5.93001 5.72631 8.16256 3.96491 10.7943 3.96491Z" fill="#E94235"/>
</svg>
