<svg width="56" height="68" viewBox="0 0 56 68" fill="none" xmlns="http://www.w3.org/2000/svg">
<path d="M53.875 28.25C53.875 48.375 28 65.625 28 65.625C28 65.625 2.125 48.375 2.125 28.25C2.125 21.3875 4.85111 14.8061 9.70361 9.95361C14.5561 5.10111 21.1375 2.375 28 2.375C34.8625 2.375 41.4439 5.10111 46.2964 9.95361C51.1489 14.8061 53.875 21.3875 53.875 28.25Z" stroke="black" stroke-width="3" stroke-linecap="round" stroke-linejoin="round"/>
<path d="M28 36.875C32.7635 36.875 36.625 33.0135 36.625 28.25C36.625 23.4865 32.7635 19.625 28 19.625C23.2365 19.625 19.375 23.4865 19.375 28.25C19.375 33.0135 23.2365 36.875 28 36.875Z" stroke="black" stroke-width="3" stroke-linecap="round" stroke-linejoin="round"/>
</svg>
