<svg width="62" height="62" viewBox="0 0 62 62" fill="none" xmlns="http://www.w3.org/2000/svg">
<path d="M59.5885 45.4554V54.2054C59.5917 55.0177 59.4277 55.8218 59.107 56.566C58.7862 57.3103 58.3157 57.9784 57.7257 58.5275C57.1357 59.0767 56.4391 59.4948 55.6806 59.755C54.9221 60.0152 54.1184 60.1119 53.321 60.0388C44.4741 59.0635 35.9761 55.9967 28.5097 51.0846C21.5632 46.6065 15.6738 40.6318 11.2597 33.5846C6.40093 25.9756 3.37719 17.3125 2.43349 8.29709C2.36165 7.49054 2.45613 6.67764 2.71093 5.91016C2.96573 5.14268 3.37526 4.43744 3.91344 3.83932C4.45163 3.24121 5.10668 2.76333 5.83689 2.43612C6.5671 2.1089 7.35647 1.93952 8.15474 1.93876H16.7797C18.175 1.92483 19.5276 2.42607 20.5856 3.34906C21.6435 4.27205 22.3345 5.55381 22.5297 6.95543C22.8938 9.75562 23.5689 12.505 24.5422 15.1513C24.9291 16.1952 25.0128 17.3298 24.7835 18.4205C24.5542 19.5112 24.0215 20.5124 23.2485 21.3054L19.5972 25.0096C23.69 32.3116 29.6495 38.3576 36.8472 42.5096L40.4985 38.8054C41.2802 38.0212 42.2671 37.4808 43.3422 37.2482C44.4174 37.0156 45.5357 37.1005 46.5647 37.4929C49.1732 38.4804 51.8833 39.1653 54.6435 39.5346C56.0401 39.7345 57.3155 40.4481 58.2273 41.5398C59.139 42.6315 59.6235 44.025 59.5885 45.4554Z" stroke="black" stroke-width="3" stroke-linecap="round" stroke-linejoin="round"/>
</svg>
